<?xml version="1.0" encoding="UTF-8" standalone="no"?>
<!-- Created with Inkscape (http://www.inkscape.org/) -->

<svg
   width="800mm"
   height="800mm"
   viewBox="0 0 800 800"
   version="1.1"
   id="svg5"
   inkscape:version="1.2.1 (9c6d41e410, 2022-07-14)"
   sodipodi:docname="seal.svg"
   inkscape:export-filename="..\favicon.png"
   inkscape:export-xdpi="1"
   inkscape:export-ydpi="1"
   xmlns:inkscape="http://www.inkscape.org/namespaces/inkscape"
   xmlns:sodipodi="http://sodipodi.sourceforge.net/DTD/sodipodi-0.dtd"
   xmlns:xlink="http://www.w3.org/1999/xlink"
   xmlns="http://www.w3.org/2000/svg"
   xmlns:svg="http://www.w3.org/2000/svg">
  <sodipodi:namedview
     id="namedview7"
     pagecolor="#ffffff"
     bordercolor="#666666"
     borderopacity="1.0"
     inkscape:showpageshadow="2"
     inkscape:pageopacity="0"
     inkscape:pagecheckerboard="0"
     inkscape:deskcolor="#d1d1d1"
     inkscape:document-units="mm"
     showgrid="false"
     inkscape:zoom="0.23282614"
     inkscape:cx="685.06053"
     inkscape:cy="1629.9716"
     inkscape:window-width="1920"
     inkscape:window-height="991"
     inkscape:window-x="-9"
     inkscape:window-y="-9"
     inkscape:window-maximized="1"
     inkscape:current-layer="layer1" />
  <defs
     id="defs2">
    <rect
       x="773.10906"
       y="257.70302"
       width="1284.2201"
       height="261.99807"
       id="rect430" />
    <rect
       x="893.37047"
       y="360.78423"
       width="98.786158"
       height="81.605957"
       id="rect424" />
  </defs>
  <g
     inkscape:label="Layer 1"
     inkscape:groupmode="layer"
     id="layer1">
    <circle
       style="fill:#000000;stroke-width:0.265367"
       id="path111"
       cx="400"
       cy="400"
       r="400" />
    <path
       id="path539"
       style="fill:#ffffff;stroke-width:0.248947"
       d="M 775.2485,400 A 375.2485,375.2485 0 0 1 400,775.2485 375.2485,375.2485 0 0 1 24.751495,400 375.2485,375.2485 0 0 1 400,24.751495 375.2485,375.2485 0 0 1 775.2485,400 Z" />
    <circle
       style="fill:#aa0000;stroke-width:0.192239;fill-opacity:1"
       id="circle349"
       cx="400"
       cy="389.7724"
       r="289.77011" />
    <circle
       style="fill:#ffff55;fill-opacity:1;stroke-width:0.174145"
       id="circle360"
       cx="400"
       cy="389.94568"
       r="262.49655" />
    <text
       xml:space="preserve"
       transform="scale(0.26458333)"
       id="text422"
       style="font-size:42.6667px;line-height:1.25;font-family:'Cambria Math';-inkscape-font-specification:'Cambria Math';white-space:pre;shape-inside:url(#rect424);display:inline" />
    <text
       xml:space="preserve"
       transform="scale(0.26458333)"
       id="text428"
       style="font-size:42.6667px;line-height:1.25;font-family:'Cambria Math';-inkscape-font-specification:'Cambria Math';white-space:pre;shape-inside:url(#rect430);display:inline" />
    <text
       xml:space="preserve"
       style="font-size:79.0222px;line-height:1.25;font-family:'Cambria Math';-inkscape-font-specification:'Cambria Math';stroke-width:0.264583"
       id="text436"
       transform="matrix(-0.95313783,-0.4240958,0.42707147,-0.89384012,616.94958,891.75962)"><textPath
         xlink:href="#circle349"
         id="textPath544"
         style="font-style:normal;font-variant:normal;font-weight:normal;font-stretch:normal;font-size:79.0222px;font-family:'Times New Roman';-inkscape-font-specification:'Times New Roman, '">Negara Derrendomo</textPath></text>
    <text
       xml:space="preserve"
       style="font-size:80.4333px;line-height:1.25;font-family:'Times New Roman';-inkscape-font-specification:'Times New Roman, ';stroke-width:0.264583"
       id="text672"
       transform="rotate(21.42714,340.39112,398.07088)"><textPath
         xlink:href="#circle349"
         id="textPath674"><tspan
           id="tspan670"
           style="stroke-width:0.264583">State of Derrendomo</tspan></textPath></text>
    <g
       inkscape:label="Skull_and_Crossbones.svg"
       transform="matrix(0.71903315,0,0,0.71903315,216.48285,213.10906)"
       id="g13123">
      <path
         fill="#ffffff"
         stroke="#000000"
         stroke-width="12.5"
         d="m 335.4,412.27 63.28,32.9 c 14.98,13.03 11.24,21.9 21.65,29.96 10.26,9.43 16.8,10.96 22.9,2.08 4.85,-10.1 3.88,-20.2 5.4,-31.2 7.08,-6.8 12.9,-10.2 18.74,-17 6.38,-7.1 6.1,-14.1 -3.75,-19.1 -8.2,-3.3 -15.96,-5 -25.8,-2.1 -6.26,2 -12.92,3.1 -21.24,-0.4 l -68.28,-31.7 -194,-67.3 c -26.1,-12.7 -47.78,-22.2 -73.6,-36.5 -14.02,-11.1 -9.5,-23.8 -26.48,-34.1 -7.47,-3.7 -12.87,-5.4 -18.85,4.8 -3.82,9 -3.52,18.6 -4.1,27.9 -6.68,7.2 -14.24,11.4 -19.73,20.3 -7.95,12.8 4.1,17 10.6,18.6 18.44,4.6 25.1,-3.7 42.1,-0.3 33.05,15.4 66.4,31.4 98.3,47.1 z"
         stroke-linejoin="round"
         id="path13099" />
      <path
         fill="#ffffff"
         stroke="#000000"
         stroke-width="12.5"
         d="m 349.56,354.82 94.5,-44.54 c 17.9,-7.08 20.4,2.9 36.2,0 12.08,-0.14 22.07,-4.86 21.24,-16.23 -6.1,-9.03 -11.8,-14.7 -22.48,-24.57 0.56,-10.54 -1.4,-20.67 -5.4,-30.8 -4.17,-5.97 -11.67,-8.6 -22.9,2.08 -11.38,8.6 -7.78,20.12 -22.07,32.05 -23.3,11.6 -44.54,21.8 -70.35,34.6 l -196.5,67.9 c -22.75,12.1 -43.42,23.3 -69.5,33.3 -21.24,5.3 -20.4,-7.7 -46.2,0.9 -7.37,5.8 -7.23,14.2 -1.26,20.4 6.93,6.8 11.8,11.1 17.9,17.1 1.94,8.6 2.22,16 3.33,26.3 4.16,12.6 13.33,11.9 21.23,5.8 3.47,-4.3 7.77,-8.2 10.4,-12.9 3.6,-6.2 7.64,-13.3 12.5,-19.1 l 62.85,-33.3 z"
         stroke-linejoin="round"
         id="path13101" />
      <path
         fill="#ffffff"
         stroke="#000000"
         stroke-width="12.5"
         d="m 128.5,221.56 c -19.14,-18.6 -32.5,-50.9 -34.37,-85.75 -2,-38.4 18.22,-76.5 48.54,-98.3 C 176.64,13.6 233.43,7 268.75,8.8 c 23.92,0.02 77.2,12.42 96.02,26.43 33,24 50.68,58.04 51.9,96.85 1.82,38.98 -14.6,68.68 -34.7,87.2"
         id="path13103" />
      <path
         fill="#ffffff"
         d="m 130.4,215 c 0,0 -23.13,70.03 21.44,81.97 l 16.25,93.66 c 17.1,73.72 154.4,73.77 174.6,0 l 16.2,-93.66 c 45.7,-12.2 22.5,-82 22.5,-82 z"
         id="path13105" />
      <path
         fill="none"
         stroke="#000000"
         stroke-width="12.5"
         d="m 129.66,112.27 c -7.75,6.78 -6.77,16.97 -5.38,32.2 1.1,11.55 8.48,22.93 8.87,33.5 2.7,22.27 -3.88,44.56 -6.98,62.78 -2.13,20.92 3.88,38.95 11.63,45.92 7.75,6.88 17.76,9.73 28.27,12.94 9.55,2.5 14.5,6.9 21.73,12.3 8.6,9.2 10.66,16.7 10.46,26 m 183.8,-226.1 c 7.75,6.8 6.77,17 5.38,32.2 -1.1,11.6 -8.48,23 -8.87,33.5 -2.7,22.3 3.88,44.6 6.98,62.8 2.13,21 -3.88,39 -11.63,46 -7.75,6.9 -21.94,10.6 -28.27,12.9 -7.37,2.6 -14.92,7.3 -21.72,12.7 -8.2,7.9 -10.66,16.3 -10.47,25.6"
         id="path13107" />
      <path
         fill="none"
         stroke="#000000"
         stroke-width="12.5"
         d="m 151.82,296.96 c 6.94,16.8 14.3,33.16 15,50.37 -3.2,13.88 -2.23,30.25 1.24,43.3 4.44,17.9 21.78,39.12 39.13,46.2 17.7,6.45 28.8,8.12 48.7,8.12"
         id="path13109" />
      <path
         fill="none"
         stroke="#000000"
         stroke-width="12.5"
         d="m 358.92,296.96 c -6.94,16.8 -14.3,33.16 -14.98,50.37 3.2,13.87 2.22,30.25 -1.25,43.3 -4.5,17.9 -22,38.5 -39.4,45.58 -17.4,7.1 -28.5,8.8 -48.3,8.8"
         id="path13111" />
      <path
         stroke="#000000"
         stroke-width="1pt"
         d="m 251.9,245.7 c -9.7,7.38 -11.86,9.86 -17.22,18.02 -1.94,3.15 -5.56,10.5 -6.55,15.44 -1,4.94 -1.73,12.1 -1.72,15.9 0.1,12.85 4.1,20.9 8.6,20.63 4,-0.5 9.1,-4.7 16.8,-14.1 m 7.1,-55.7 c 9.7,7.3 11.9,9.8 17.2,18 2,3.1 5.6,10.5 6.6,15.4 1,4.9 1.8,12.1 1.7,15.9 0,12.8 -4.1,20.9 -8.5,20.6 -4,-0.5 -9.1,-4.7 -16.8,-14.1 m -89.5,-112.3 c 13.5,-2.4 26.5,-3.9 40,-5.4 17.6,-4.5 26.5,15.6 21.7,30.8 -6.1,13.4 -14.7,25.2 -24.5,36.6 -7.6,8.6 -16.7,9.9 -25.4,7 -7,-2 -13.4,-6.3 -20.4,-16.3 -3,-8.6 -5.6,-13.1 -9.5,-23.7 -3.02,-9.9 1.7,-24.6 18.3,-29.2 z m 172.1,0 c -13.4,-2.4 -26.5,-3.9 -39.9,-5.4 -17.6,-4.5 -26.5,15.6 -21.6,30.8 6.1,13.4 14.7,25.2 24.6,36.6 7.7,8.6 16.8,9.9 25.4,7 7,-2 13.5,-6.3 20.4,-16.3 3.1,-8.6 5.7,-13.1 9.6,-23.7 3.1,-9.9 -1.7,-24.6 -18.3,-29.2 z"
         id="path13113" />
      <path
         fill="none"
         stroke="#000000"
         stroke-width="6.25"
         d="m 169.23,304.53 c 5.7,13.34 7.45,18.4 11.55,31.72 3.5,12.3 4.8,19.8 6.95,37.26 m 153.37,-69.7 c -5.7,13.4 -7.46,18.4 -11.57,31.7 -3.5,12.3 -4.78,19.8 -6.94,37.3"
         id="path13115" />
      <path
         fill="none"
         stroke="#000000"
         stroke-width="5"
         d="m 193.52,335.73 c 14.7,9.03 40.16,10.42 62.95,10 25.4,-0.12 47.13,-1.95 61.4,-10.6 m -119.2,24.15 c 16.23,10.2 35.33,13.7 57.32,12.88 22.8,-0.56 40.3,-2.48 56,-13.17"
         id="path13117" />
      <path
         fill="none"
         stroke="#000000"
         stroke-width="6.25"
         d="m 186.9,371.64 c 17.36,20.95 41.6,24.6 69.17,25.32 29.5,1.08 59.16,-10.65 66.8,-25.3"
         id="path13119" />
      <path
         stroke="#000000"
         stroke-width="5"
         d="m 198.44,340.26 -0.4,41.2 m 13.93,-36.83 -0.2,44.12 m 15.2,-42.25 -0.43,46.2 m 13.96,-45.16 -0.22,46.83 m 15.4,-46.4 v 46.82 m 14.57,-47.1 0.2,46.8 m 12.92,-48.1 0.4,46 m 14.8,-48.5 0.2,44.1 m 13.53,-49.6 0.4,41.6"
         id="path13121" />
    </g>
  </g>
</svg>
